<mxfile host="Electron" agent="Mozilla/5.0 (Windows NT 10.0; Win64; x64) AppleWebKit/537.36 (KHTML, like Gecko) draw.io/24.7.17 Chrome/128.0.6613.36 Electron/32.0.1 Safari/537.36" version="24.7.17">
  <diagram id="R2lEEEUBdFMjLlhIrx00" name="Page-1">
    <mxGraphModel dx="863" dy="505" grid="1" gridSize="10" guides="1" tooltips="1" connect="1" arrows="1" fold="1" page="1" pageScale="1" pageWidth="1169" pageHeight="827" math="0" shadow="0" extFonts="Permanent Marker^https://fonts.googleapis.com/css?family=Permanent+Marker">
      <root>
        <mxCell id="0" />
        <mxCell id="1" parent="0" />
        <mxCell id="6A7eDftYS5Cg23WvpgZf-12" style="edgeStyle=orthogonalEdgeStyle;rounded=0;orthogonalLoop=1;jettySize=auto;html=1;exitX=0;exitY=1;exitDx=0;exitDy=0;entryX=1;entryY=0.5;entryDx=0;entryDy=0;endArrow=none;endFill=0;" edge="1" parent="1" source="0Zq-S1y-YvVeoT-IsRs--1" target="6A7eDftYS5Cg23WvpgZf-9">
          <mxGeometry relative="1" as="geometry" />
        </mxCell>
        <mxCell id="0Zq-S1y-YvVeoT-IsRs--1" value="&lt;font style=&quot;font-size: 8px;&quot;&gt;ORGANIZADOR&lt;/font&gt;" style="rounded=0;whiteSpace=wrap;html=1;" parent="1" vertex="1">
          <mxGeometry x="90" y="280" width="100" height="40" as="geometry" />
        </mxCell>
        <mxCell id="0Zq-S1y-YvVeoT-IsRs--2" style="edgeStyle=orthogonalEdgeStyle;rounded=0;orthogonalLoop=1;jettySize=auto;html=1;exitX=0.5;exitY=0;exitDx=0;exitDy=0;entryX=0;entryY=0.5;entryDx=0;entryDy=0;endArrow=none;endFill=0;" parent="1" source="0Zq-S1y-YvVeoT-IsRs--4" target="0Zq-S1y-YvVeoT-IsRs--8" edge="1">
          <mxGeometry relative="1" as="geometry" />
        </mxCell>
        <mxCell id="0Zq-S1y-YvVeoT-IsRs--3" style="edgeStyle=orthogonalEdgeStyle;rounded=0;orthogonalLoop=1;jettySize=auto;html=1;exitX=0.5;exitY=1;exitDx=0;exitDy=0;entryX=0;entryY=0.5;entryDx=0;entryDy=0;endArrow=none;endFill=0;" parent="1" source="0Zq-S1y-YvVeoT-IsRs--4" target="0Zq-S1y-YvVeoT-IsRs--10" edge="1">
          <mxGeometry relative="1" as="geometry" />
        </mxCell>
        <mxCell id="0Zq-S1y-YvVeoT-IsRs--4" value="&lt;font style=&quot;font-size: 8px;&quot;&gt;EVENTO&lt;/font&gt;" style="rounded=0;whiteSpace=wrap;html=1;" parent="1" vertex="1">
          <mxGeometry x="350" y="280" width="100" height="40" as="geometry" />
        </mxCell>
        <mxCell id="0Zq-S1y-YvVeoT-IsRs--5" style="edgeStyle=orthogonalEdgeStyle;rounded=0;orthogonalLoop=1;jettySize=auto;html=1;exitX=0.5;exitY=0;exitDx=0;exitDy=0;entryX=1;entryY=0.5;entryDx=0;entryDy=0;endArrow=none;endFill=0;" parent="1" source="0Zq-S1y-YvVeoT-IsRs--6" target="0Zq-S1y-YvVeoT-IsRs--8" edge="1">
          <mxGeometry relative="1" as="geometry" />
        </mxCell>
        <mxCell id="0Zq-S1y-YvVeoT-IsRs--6" value="&lt;font style=&quot;font-size: 8px;&quot;&gt;USUARIO&lt;/font&gt;" style="rounded=0;whiteSpace=wrap;html=1;" parent="1" vertex="1">
          <mxGeometry x="630" y="280" width="100" height="40" as="geometry" />
        </mxCell>
        <mxCell id="0Zq-S1y-YvVeoT-IsRs--7" value="&lt;font style=&quot;font-size: 8px;&quot;&gt;organiza&lt;/font&gt;" style="rhombus;whiteSpace=wrap;html=1;" parent="1" vertex="1">
          <mxGeometry x="230" y="285" width="70" height="30" as="geometry" />
        </mxCell>
        <mxCell id="0Zq-S1y-YvVeoT-IsRs--8" value="&lt;div&gt;&lt;font style=&quot;font-size: 8px;&quot;&gt;inscribe&lt;/font&gt;&lt;/div&gt;" style="rhombus;whiteSpace=wrap;html=1;" parent="1" vertex="1">
          <mxGeometry x="510" y="190" width="70" height="30" as="geometry" />
        </mxCell>
        <mxCell id="0Zq-S1y-YvVeoT-IsRs--9" style="edgeStyle=orthogonalEdgeStyle;rounded=0;orthogonalLoop=1;jettySize=auto;html=1;exitX=1;exitY=0.5;exitDx=0;exitDy=0;entryX=0.5;entryY=1;entryDx=0;entryDy=0;endArrow=none;endFill=0;" parent="1" source="0Zq-S1y-YvVeoT-IsRs--10" target="0Zq-S1y-YvVeoT-IsRs--6" edge="1">
          <mxGeometry relative="1" as="geometry" />
        </mxCell>
        <mxCell id="0Zq-S1y-YvVeoT-IsRs--10" value="&lt;font style=&quot;font-size: 8px;&quot;&gt;asiste&lt;/font&gt;" style="rhombus;whiteSpace=wrap;html=1;" parent="1" vertex="1">
          <mxGeometry x="510" y="370" width="70" height="30" as="geometry" />
        </mxCell>
        <mxCell id="0Zq-S1y-YvVeoT-IsRs--11" value="" style="endArrow=none;html=1;rounded=0;" parent="1" target="0Zq-S1y-YvVeoT-IsRs--7" edge="1">
          <mxGeometry width="50" height="50" relative="1" as="geometry">
            <mxPoint x="190" y="300" as="sourcePoint" />
            <mxPoint x="240" y="250" as="targetPoint" />
          </mxGeometry>
        </mxCell>
        <mxCell id="0Zq-S1y-YvVeoT-IsRs--12" value="" style="endArrow=none;html=1;rounded=0;exitX=1;exitY=0.5;exitDx=0;exitDy=0;" parent="1" source="0Zq-S1y-YvVeoT-IsRs--7" edge="1">
          <mxGeometry width="50" height="50" relative="1" as="geometry">
            <mxPoint x="310" y="299.66" as="sourcePoint" />
            <mxPoint x="350" y="299.66" as="targetPoint" />
          </mxGeometry>
        </mxCell>
        <mxCell id="0Zq-S1y-YvVeoT-IsRs--13" value="(0,n)" style="text;html=1;align=center;verticalAlign=middle;resizable=0;points=[];autosize=1;strokeColor=none;fillColor=none;" parent="1" vertex="1">
          <mxGeometry x="190" y="298" width="50" height="30" as="geometry" />
        </mxCell>
        <mxCell id="0Zq-S1y-YvVeoT-IsRs--14" value="(0,n)" style="text;html=1;align=center;verticalAlign=middle;resizable=0;points=[];autosize=1;strokeColor=none;fillColor=none;" parent="1" vertex="1">
          <mxGeometry x="390" y="250" width="50" height="30" as="geometry" />
        </mxCell>
        <mxCell id="0Zq-S1y-YvVeoT-IsRs--15" value="(N:M)" style="text;html=1;align=center;verticalAlign=middle;resizable=0;points=[];autosize=1;strokeColor=none;fillColor=none;" parent="1" vertex="1">
          <mxGeometry x="520" y="400" width="50" height="30" as="geometry" />
        </mxCell>
        <mxCell id="0Zq-S1y-YvVeoT-IsRs--16" value="(N:M)" style="text;html=1;align=center;verticalAlign=middle;resizable=0;points=[];autosize=1;strokeColor=none;fillColor=none;" parent="1" vertex="1">
          <mxGeometry x="520" y="160" width="50" height="30" as="geometry" />
        </mxCell>
        <mxCell id="0Zq-S1y-YvVeoT-IsRs--17" value="(1,n)" style="text;html=1;align=center;verticalAlign=middle;resizable=0;points=[];autosize=1;strokeColor=none;fillColor=none;" parent="1" vertex="1">
          <mxGeometry x="640" y="250" width="50" height="30" as="geometry" />
        </mxCell>
        <mxCell id="0Zq-S1y-YvVeoT-IsRs--18" value="(0,n)" style="text;html=1;align=center;verticalAlign=middle;resizable=0;points=[];autosize=1;strokeColor=none;fillColor=none;" parent="1" vertex="1">
          <mxGeometry x="390" y="315" width="50" height="30" as="geometry" />
        </mxCell>
        <mxCell id="0Zq-S1y-YvVeoT-IsRs--19" value="(1,n)" style="text;html=1;align=center;verticalAlign=middle;resizable=0;points=[];autosize=1;strokeColor=none;fillColor=none;" parent="1" vertex="1">
          <mxGeometry x="640" y="315" width="50" height="30" as="geometry" />
        </mxCell>
        <mxCell id="0Zq-S1y-YvVeoT-IsRs--20" value="(1,n)" style="text;html=1;align=center;verticalAlign=middle;resizable=0;points=[];autosize=1;strokeColor=none;fillColor=none;" parent="1" vertex="1">
          <mxGeometry x="300" y="298" width="50" height="30" as="geometry" />
        </mxCell>
        <mxCell id="0Zq-S1y-YvVeoT-IsRs--21" value="" style="endArrow=classic;html=1;rounded=0;curved=1;entryX=1;entryY=0.5;entryDx=0;entryDy=0;" parent="1" target="0Zq-S1y-YvVeoT-IsRs--8" edge="1">
          <mxGeometry width="50" height="50" relative="1" as="geometry">
            <mxPoint x="580" y="385" as="sourcePoint" />
            <mxPoint x="625.24" y="200.00000000000003" as="targetPoint" />
            <Array as="points">
              <mxPoint x="640" y="280" />
            </Array>
          </mxGeometry>
        </mxCell>
        <mxCell id="0Zq-S1y-YvVeoT-IsRs--22" value="&lt;font style=&quot;font-size: 8px;&quot;&gt;nombre&lt;/font&gt;" style="ellipse;whiteSpace=wrap;html=1;" parent="1" vertex="1">
          <mxGeometry x="760" y="230" width="60" height="20" as="geometry" />
        </mxCell>
        <mxCell id="0Zq-S1y-YvVeoT-IsRs--23" style="edgeStyle=orthogonalEdgeStyle;rounded=0;orthogonalLoop=1;jettySize=auto;html=1;exitX=0;exitY=0.5;exitDx=0;exitDy=0;entryX=0.857;entryY=-0.023;entryDx=0;entryDy=0;entryPerimeter=0;endArrow=none;endFill=0;" parent="1" source="0Zq-S1y-YvVeoT-IsRs--22" target="0Zq-S1y-YvVeoT-IsRs--6" edge="1">
          <mxGeometry relative="1" as="geometry" />
        </mxCell>
        <mxCell id="0Zq-S1y-YvVeoT-IsRs--28" style="edgeStyle=orthogonalEdgeStyle;rounded=0;orthogonalLoop=1;jettySize=auto;html=1;exitX=0;exitY=0.5;exitDx=0;exitDy=0;entryX=1;entryY=0.5;entryDx=0;entryDy=0;endArrow=none;endFill=0;" parent="1" source="0Zq-S1y-YvVeoT-IsRs--24" target="0Zq-S1y-YvVeoT-IsRs--6" edge="1">
          <mxGeometry relative="1" as="geometry" />
        </mxCell>
        <mxCell id="0Zq-S1y-YvVeoT-IsRs--24" value="&lt;font style=&quot;font-size: 8px;&quot;&gt;email&lt;/font&gt;" style="ellipse;whiteSpace=wrap;html=1;" parent="1" vertex="1">
          <mxGeometry x="780" y="290" width="60" height="20" as="geometry" />
        </mxCell>
        <mxCell id="0Zq-S1y-YvVeoT-IsRs--25" value="&lt;font style=&quot;font-size: 8px;&quot;&gt;contraseÃ±a&lt;/font&gt;" style="ellipse;whiteSpace=wrap;html=1;" parent="1" vertex="1">
          <mxGeometry x="760" y="360" width="60" height="20" as="geometry" />
        </mxCell>
        <mxCell id="0Zq-S1y-YvVeoT-IsRs--27" style="edgeStyle=orthogonalEdgeStyle;rounded=0;orthogonalLoop=1;jettySize=auto;html=1;exitX=0;exitY=0.5;exitDx=0;exitDy=0;entryX=0.857;entryY=1.038;entryDx=0;entryDy=0;entryPerimeter=0;endArrow=none;endFill=0;" parent="1" source="0Zq-S1y-YvVeoT-IsRs--25" target="0Zq-S1y-YvVeoT-IsRs--6" edge="1">
          <mxGeometry relative="1" as="geometry" />
        </mxCell>
        <mxCell id="0Zq-S1y-YvVeoT-IsRs--29" value="&lt;font style=&quot;font-size: 8px;&quot;&gt;email&lt;/font&gt;" style="ellipse;whiteSpace=wrap;html=1;fillColor=#60a917;fontColor=#ffffff;strokeColor=#2D7600;gradientColor=#000000;gradientDirection=south;" parent="1" vertex="1">
          <mxGeometry x="120" y="210" width="60" height="20" as="geometry" />
        </mxCell>
        <mxCell id="0Zq-S1y-YvVeoT-IsRs--35" style="edgeStyle=orthogonalEdgeStyle;rounded=0;orthogonalLoop=1;jettySize=auto;html=1;exitX=0.5;exitY=1;exitDx=0;exitDy=0;entryX=1;entryY=0;entryDx=0;entryDy=0;endArrow=none;endFill=0;" parent="1" source="0Zq-S1y-YvVeoT-IsRs--30" target="0Zq-S1y-YvVeoT-IsRs--1" edge="1">
          <mxGeometry relative="1" as="geometry" />
        </mxCell>
        <mxCell id="0Zq-S1y-YvVeoT-IsRs--30" value="&lt;font style=&quot;font-size: 8px;&quot;&gt;telÃ©fono&lt;/font&gt;" style="ellipse;whiteSpace=wrap;html=1;strokeWidth=3;" parent="1" vertex="1">
          <mxGeometry x="200" y="220" width="60" height="20" as="geometry" />
        </mxCell>
        <mxCell id="0Zq-S1y-YvVeoT-IsRs--33" style="edgeStyle=orthogonalEdgeStyle;rounded=0;orthogonalLoop=1;jettySize=auto;html=1;exitX=0.5;exitY=1;exitDx=0;exitDy=0;entryX=0;entryY=0.5;entryDx=0;entryDy=0;endArrow=none;endFill=0;" parent="1" source="0Zq-S1y-YvVeoT-IsRs--31" target="0Zq-S1y-YvVeoT-IsRs--1" edge="1">
          <mxGeometry relative="1" as="geometry">
            <Array as="points">
              <mxPoint x="70" y="270" />
              <mxPoint x="90" y="270" />
            </Array>
          </mxGeometry>
        </mxCell>
        <mxCell id="0Zq-S1y-YvVeoT-IsRs--31" value="&lt;font style=&quot;font-size: 8px;&quot;&gt;nombre&lt;/font&gt;" style="ellipse;whiteSpace=wrap;html=1;" parent="1" vertex="1">
          <mxGeometry x="40" y="220" width="60" height="20" as="geometry" />
        </mxCell>
        <mxCell id="0Zq-S1y-YvVeoT-IsRs--36" style="edgeStyle=orthogonalEdgeStyle;rounded=0;orthogonalLoop=1;jettySize=auto;html=1;exitX=0.5;exitY=1;exitDx=0;exitDy=0;entryX=0.595;entryY=0.038;entryDx=0;entryDy=0;entryPerimeter=0;endArrow=none;endFill=0;" parent="1" source="0Zq-S1y-YvVeoT-IsRs--29" target="0Zq-S1y-YvVeoT-IsRs--1" edge="1">
          <mxGeometry relative="1" as="geometry" />
        </mxCell>
        <mxCell id="0Zq-S1y-YvVeoT-IsRs--41" style="edgeStyle=orthogonalEdgeStyle;rounded=0;orthogonalLoop=1;jettySize=auto;html=1;exitX=1;exitY=0.5;exitDx=0;exitDy=0;entryX=0;entryY=0.5;entryDx=0;entryDy=0;endArrow=none;endFill=0;" parent="1" source="0Zq-S1y-YvVeoT-IsRs--37" target="0Zq-S1y-YvVeoT-IsRs--39" edge="1">
          <mxGeometry relative="1" as="geometry" />
        </mxCell>
        <mxCell id="0Zq-S1y-YvVeoT-IsRs--37" value="&lt;span style=&quot;font-size: 8px;&quot;&gt;CATEGORIA&lt;/span&gt;" style="rounded=0;whiteSpace=wrap;html=1;" parent="1" vertex="1">
          <mxGeometry x="130" y="440" width="100" height="40" as="geometry" />
        </mxCell>
        <mxCell id="0Zq-S1y-YvVeoT-IsRs--39" value="&lt;font style=&quot;font-size: 8px;&quot;&gt;pertenece&lt;/font&gt;" style="rhombus;whiteSpace=wrap;html=1;" parent="1" vertex="1">
          <mxGeometry x="290" y="445" width="70" height="30" as="geometry" />
        </mxCell>
        <mxCell id="0Zq-S1y-YvVeoT-IsRs--42" style="edgeStyle=orthogonalEdgeStyle;rounded=0;orthogonalLoop=1;jettySize=auto;html=1;exitX=1;exitY=0.5;exitDx=0;exitDy=0;entryX=0.328;entryY=1.085;entryDx=0;entryDy=0;entryPerimeter=0;endArrow=none;endFill=0;" parent="1" source="0Zq-S1y-YvVeoT-IsRs--39" target="0Zq-S1y-YvVeoT-IsRs--4" edge="1">
          <mxGeometry relative="1" as="geometry" />
        </mxCell>
        <mxCell id="0Zq-S1y-YvVeoT-IsRs--43" value="(1,n)" style="text;html=1;align=center;verticalAlign=middle;resizable=0;points=[];autosize=1;strokeColor=none;fillColor=none;" parent="1" vertex="1">
          <mxGeometry x="220" y="430" width="50" height="30" as="geometry" />
        </mxCell>
        <mxCell id="0Zq-S1y-YvVeoT-IsRs--44" value="(1,n)" style="text;html=1;align=center;verticalAlign=middle;resizable=0;points=[];autosize=1;strokeColor=none;fillColor=none;" parent="1" vertex="1">
          <mxGeometry x="340" y="315" width="50" height="30" as="geometry" />
        </mxCell>
        <mxCell id="0Zq-S1y-YvVeoT-IsRs--45" value="(N:M)" style="text;html=1;align=center;verticalAlign=middle;resizable=0;points=[];autosize=1;strokeColor=none;fillColor=none;" parent="1" vertex="1">
          <mxGeometry x="300" y="470" width="50" height="30" as="geometry" />
        </mxCell>
        <mxCell id="6A7eDftYS5Cg23WvpgZf-3" style="edgeStyle=orthogonalEdgeStyle;rounded=0;orthogonalLoop=1;jettySize=auto;html=1;exitX=0;exitY=0.5;exitDx=0;exitDy=0;entryX=0.75;entryY=0;entryDx=0;entryDy=0;endArrow=none;endFill=0;" edge="1" parent="1" source="6A7eDftYS5Cg23WvpgZf-2" target="0Zq-S1y-YvVeoT-IsRs--6">
          <mxGeometry relative="1" as="geometry" />
        </mxCell>
        <mxCell id="6A7eDftYS5Cg23WvpgZf-2" value="&lt;font style=&quot;font-size: 8px;&quot;&gt;Id_usuario&lt;/font&gt;" style="ellipse;whiteSpace=wrap;html=1;fillColor=#60a917;fontColor=#ffffff;strokeColor=#2D7600;" vertex="1" parent="1">
          <mxGeometry x="760" y="180" width="60" height="20" as="geometry" />
        </mxCell>
        <mxCell id="6A7eDftYS5Cg23WvpgZf-7" style="edgeStyle=orthogonalEdgeStyle;rounded=0;orthogonalLoop=1;jettySize=auto;html=1;exitX=0.5;exitY=0;exitDx=0;exitDy=0;entryX=0.25;entryY=1;entryDx=0;entryDy=0;endArrow=none;endFill=0;" edge="1" parent="1" source="6A7eDftYS5Cg23WvpgZf-4" target="0Zq-S1y-YvVeoT-IsRs--37">
          <mxGeometry relative="1" as="geometry" />
        </mxCell>
        <mxCell id="6A7eDftYS5Cg23WvpgZf-4" value="&lt;font style=&quot;font-size: 8px;&quot;&gt;Tipo&lt;/font&gt;" style="ellipse;whiteSpace=wrap;html=1;fillColor=#60a917;fontColor=#ffffff;strokeColor=#2D7600;" vertex="1" parent="1">
          <mxGeometry x="90" y="520" width="60" height="20" as="geometry" />
        </mxCell>
        <mxCell id="6A7eDftYS5Cg23WvpgZf-5" value="&lt;font style=&quot;font-size: 8px;&quot;&gt;Nombre&lt;/font&gt;" style="ellipse;whiteSpace=wrap;html=1;" vertex="1" parent="1">
          <mxGeometry x="220" y="520" width="60" height="20" as="geometry" />
        </mxCell>
        <mxCell id="6A7eDftYS5Cg23WvpgZf-8" style="edgeStyle=orthogonalEdgeStyle;rounded=0;orthogonalLoop=1;jettySize=auto;html=1;exitX=0.5;exitY=0;exitDx=0;exitDy=0;entryX=0.889;entryY=0.966;entryDx=0;entryDy=0;entryPerimeter=0;endArrow=none;endFill=0;" edge="1" parent="1" source="6A7eDftYS5Cg23WvpgZf-5" target="0Zq-S1y-YvVeoT-IsRs--37">
          <mxGeometry relative="1" as="geometry" />
        </mxCell>
        <mxCell id="6A7eDftYS5Cg23WvpgZf-9" value="&lt;font style=&quot;font-size: 8px;&quot;&gt;Id_Organizador&lt;/font&gt;" style="ellipse;whiteSpace=wrap;html=1;fillColor=#60a917;strokeColor=#2D7600;fontColor=#ffffff;" vertex="1" parent="1">
          <mxGeometry x="10" y="345" width="60" height="20" as="geometry" />
        </mxCell>
        <mxCell id="6A7eDftYS5Cg23WvpgZf-17" style="edgeStyle=orthogonalEdgeStyle;rounded=0;orthogonalLoop=1;jettySize=auto;html=1;exitX=0.5;exitY=1;exitDx=0;exitDy=0;entryX=0;entryY=0.25;entryDx=0;entryDy=0;endArrow=none;endFill=0;" edge="1" parent="1" source="6A7eDftYS5Cg23WvpgZf-13" target="0Zq-S1y-YvVeoT-IsRs--4">
          <mxGeometry relative="1" as="geometry" />
        </mxCell>
        <mxCell id="6A7eDftYS5Cg23WvpgZf-13" value="&lt;span style=&quot;font-size: 8px;&quot;&gt;Id_evento&lt;/span&gt;" style="ellipse;whiteSpace=wrap;html=1;fillColor=#60a917;fontColor=#ffffff;strokeColor=#2D7600;" vertex="1" parent="1">
          <mxGeometry x="280" y="170" width="60" height="20" as="geometry" />
        </mxCell>
        <mxCell id="6A7eDftYS5Cg23WvpgZf-14" value="&lt;font style=&quot;font-size: 8px;&quot;&gt;nombre&lt;/font&gt;" style="ellipse;whiteSpace=wrap;html=1;" vertex="1" parent="1">
          <mxGeometry x="320" y="220" width="60" height="20" as="geometry" />
        </mxCell>
        <mxCell id="6A7eDftYS5Cg23WvpgZf-16" style="edgeStyle=orthogonalEdgeStyle;rounded=0;orthogonalLoop=1;jettySize=auto;html=1;exitX=0.5;exitY=0;exitDx=0;exitDy=0;endArrow=none;endFill=0;" edge="1" parent="1">
          <mxGeometry relative="1" as="geometry">
            <mxPoint x="320" y="360" as="sourcePoint" />
            <mxPoint x="320" y="360" as="targetPoint" />
          </mxGeometry>
        </mxCell>
        <mxCell id="6A7eDftYS5Cg23WvpgZf-18" style="edgeStyle=orthogonalEdgeStyle;rounded=0;orthogonalLoop=1;jettySize=auto;html=1;exitX=0.5;exitY=1;exitDx=0;exitDy=0;entryX=0.301;entryY=0;entryDx=0;entryDy=0;entryPerimeter=0;endArrow=none;endFill=0;" edge="1" parent="1" source="6A7eDftYS5Cg23WvpgZf-14" target="0Zq-S1y-YvVeoT-IsRs--4">
          <mxGeometry relative="1" as="geometry" />
        </mxCell>
        <mxCell id="6A7eDftYS5Cg23WvpgZf-19" value="&lt;font style=&quot;font-size: 8px;&quot;&gt;aforo&lt;/font&gt;" style="ellipse;whiteSpace=wrap;html=1;" vertex="1" parent="1">
          <mxGeometry x="360" y="170" width="60" height="20" as="geometry" />
        </mxCell>
        <mxCell id="6A7eDftYS5Cg23WvpgZf-23" style="edgeStyle=orthogonalEdgeStyle;rounded=0;orthogonalLoop=1;jettySize=auto;html=1;exitX=0.5;exitY=1;exitDx=0;exitDy=0;entryX=0.405;entryY=-0.014;entryDx=0;entryDy=0;entryPerimeter=0;endArrow=none;endFill=0;" edge="1" parent="1" source="6A7eDftYS5Cg23WvpgZf-19" target="0Zq-S1y-YvVeoT-IsRs--4">
          <mxGeometry relative="1" as="geometry" />
        </mxCell>
        <mxCell id="6A7eDftYS5Cg23WvpgZf-24" value="&lt;font style=&quot;font-size: 8px;&quot;&gt;email&lt;/font&gt;" style="ellipse;whiteSpace=wrap;html=1;fillColor=#60a917;fontColor=#ffffff;strokeColor=#2D7600;gradientColor=#000000;gradientDirection=south;" vertex="1" parent="1">
          <mxGeometry x="780" y="290" width="60" height="20" as="geometry" />
        </mxCell>
      </root>
    </mxGraphModel>
  </diagram>
</mxfile>
